<svg xmlns="http://www.w3.org/2000/svg" width="1200" height="400"><rect width="1200" height="400" fill="#f3f8fc"/><text x="40" y="55" font-family="Arial" font-size="30" font-weight="700" fill="#12395a">NISE workflow</text><rect x="40" y="110" width="180" height="90" rx="16" fill="white" stroke="#12395a" stroke-width="3"/><text x="65" y="160" font-family="Arial" font-size="18">Input data</text><rect x="280" y="110" width="180" height="90" rx="16" fill="white" stroke="#12395a" stroke-width="3"/><text x="305" y="160" font-family="Arial" font-size="18">EC grouping</text><rect x="520" y="110" width="180" height="90" rx="16" fill="white" stroke="#12395a" stroke-width="3"/><text x="545" y="160" font-family="Arial" font-size="18">AnEnPi</text><rect x="760" y="110" width="180" height="90" rx="16" fill="white" stroke="#12395a" stroke-width="3"/><text x="785" y="160" font-family="Arial" font-size="18">Evidence</text><rect x="1000" y="110" width="160" height="90" rx="16" fill="white" stroke="#12395a" stroke-width="3"/><text x="1025" y="160" font-family="Arial" font-size="18">Outputs</text><path d="M220 155 L280 155 M460 155 L520 155 M700 155 L760 155 M940 155 L1000 155" stroke="#008c9e" stroke-width="5"/><rect x="40" y="260" width="1120" height="70" rx="16" fill="#fff6dc" stroke="#ffbf47" stroke-width="3"/><text x="70" y="303" font-family="Arial" font-size="18">Diagnostic ECs, selective analogs, FASTA links, tables, article and public database.</text></svg>